<svg width="288" height="30" viewBox="0 0 288 30" fill="none" xmlns="http://www.w3.org/2000/svg">
<path d="M21 15L3 15" stroke="white" stroke-linecap="round"/>
<path d="M9 9L3 15L9 21" stroke="white" stroke-linecap="round"/>
<path d="M54.8555 20H53.4785V14.4688C53.4785 13.8086 53.4941 13.2852 53.5254 12.8984C53.4355 12.9922 53.3242 13.0957 53.1914 13.209C53.0625 13.3223 52.625 13.6816 51.8789 14.2871L51.1875 13.4141L53.707 11.4336H54.8555V20Z" fill="white"/>
<rect x="50.2852" y="26" width="11" height="2" fill="#009FAC"/>
<path d="M93.7891 20H88.1582V19.1621L90.4141 16.8945C91.1016 16.1992 91.5547 15.7031 91.7734 15.4062C91.9922 15.1094 92.1562 14.8203 92.2656 14.5391C92.375 14.2578 92.4297 13.9551 92.4297 13.6309C92.4297 13.1738 92.291 12.8125 92.0137 12.5469C91.7363 12.2773 91.3516 12.1426 90.8594 12.1426C90.5039 12.1426 90.166 12.2012 89.8457 12.3184C89.5293 12.4355 89.1758 12.6484 88.7852 12.957L88.2695 12.2949C89.0586 11.6387 89.918 11.3105 90.8477 11.3105C91.6523 11.3105 92.2832 11.5176 92.7402 11.9316C93.1973 12.3418 93.4258 12.8945 93.4258 13.5898C93.4258 14.1328 93.2734 14.6699 92.9688 15.2012C92.6641 15.7324 92.0938 16.4043 91.2578 17.2168L89.3828 19.0508V19.0977H93.7891V20Z" fill="white"/>
<path d="M126.752 13.4492C126.752 13.9961 126.598 14.4434 126.289 14.791C125.984 15.1387 125.551 15.3711 124.988 15.4883V15.5352C125.676 15.6211 126.186 15.8398 126.518 16.1914C126.85 16.543 127.016 17.0039 127.016 17.5742C127.016 18.3906 126.732 19.0195 126.166 19.4609C125.6 19.8984 124.795 20.1172 123.752 20.1172C123.299 20.1172 122.883 20.082 122.504 20.0117C122.129 19.9453 121.764 19.8262 121.408 19.6543V18.7285C121.779 18.9121 122.174 19.0527 122.592 19.1504C123.014 19.2441 123.412 19.291 123.787 19.291C125.268 19.291 126.008 18.7109 126.008 17.5508C126.008 16.5117 125.191 15.9922 123.559 15.9922H122.715V15.1543H123.57C124.238 15.1543 124.768 15.0078 125.158 14.7148C125.549 14.418 125.744 14.0078 125.744 13.4844C125.744 13.0664 125.6 12.7383 125.311 12.5C125.025 12.2617 124.637 12.1426 124.145 12.1426C123.77 12.1426 123.416 12.1934 123.084 12.2949C122.752 12.3965 122.373 12.584 121.947 12.8574L121.455 12.2012C121.807 11.9238 122.211 11.707 122.668 11.5508C123.129 11.3906 123.613 11.3105 124.121 11.3105C124.953 11.3105 125.6 11.502 126.061 11.8848C126.521 12.2637 126.752 12.7852 126.752 13.4492Z" fill="white"/>
<path d="M160.764 18.0312H159.492V20H158.561V18.0312H154.395V17.1816L158.461 11.3867H159.492V17.1465H160.764V18.0312ZM158.561 17.1465V14.2988C158.561 13.7402 158.58 13.1094 158.619 12.4062H158.572C158.385 12.7812 158.209 13.0918 158.045 13.3379L155.367 17.1465H158.561Z" fill="white"/>
<path d="M188.318 19.3789C188.318 19.1172 188.377 18.9199 188.494 18.7871C188.615 18.6504 188.787 18.582 189.01 18.582C189.236 18.582 189.412 18.6504 189.537 18.7871C189.666 18.9199 189.73 19.1172 189.73 19.3789C189.73 19.6328 189.666 19.8281 189.537 19.9648C189.408 20.1016 189.232 20.1699 189.01 20.1699C188.811 20.1699 188.645 20.1094 188.512 19.9883C188.383 19.8633 188.318 19.6602 188.318 19.3789ZM191.618 19.3789C191.618 19.1172 191.676 18.9199 191.793 18.7871C191.914 18.6504 192.086 18.582 192.309 18.582C192.536 18.582 192.711 18.6504 192.836 18.7871C192.965 18.9199 193.03 19.1172 193.03 19.3789C193.03 19.6328 192.965 19.8281 192.836 19.9648C192.707 20.1016 192.532 20.1699 192.309 20.1699C192.11 20.1699 191.944 20.1094 191.811 19.9883C191.682 19.8633 191.618 19.6602 191.618 19.3789ZM194.917 19.3789C194.917 19.1172 194.975 18.9199 195.093 18.7871C195.214 18.6504 195.386 18.582 195.608 18.582C195.835 18.582 196.011 18.6504 196.136 18.7871C196.264 18.9199 196.329 19.1172 196.329 19.3789C196.329 19.6328 196.264 19.8281 196.136 19.9648C196.007 20.1016 195.831 20.1699 195.608 20.1699C195.409 20.1699 195.243 20.1094 195.11 19.9883C194.981 19.8633 194.917 19.6602 194.917 19.3789Z" fill="white"/>
<path d="M229.609 13.4492C229.609 13.9961 229.455 14.4434 229.146 14.791C228.842 15.1387 228.408 15.3711 227.846 15.4883V15.5352C228.533 15.6211 229.043 15.8398 229.375 16.1914C229.707 16.543 229.873 17.0039 229.873 17.5742C229.873 18.3906 229.59 19.0195 229.023 19.4609C228.457 19.8984 227.652 20.1172 226.609 20.1172C226.156 20.1172 225.74 20.082 225.361 20.0117C224.986 19.9453 224.621 19.8262 224.266 19.6543V18.7285C224.637 18.9121 225.031 19.0527 225.449 19.1504C225.871 19.2441 226.27 19.291 226.645 19.291C228.125 19.291 228.865 18.7109 228.865 17.5508C228.865 16.5117 228.049 15.9922 226.416 15.9922H225.572V15.1543H226.428C227.096 15.1543 227.625 15.0078 228.016 14.7148C228.406 14.418 228.602 14.0078 228.602 13.4844C228.602 13.0664 228.457 12.7383 228.168 12.5C227.883 12.2617 227.494 12.1426 227.002 12.1426C226.627 12.1426 226.273 12.1934 225.941 12.2949C225.609 12.3965 225.23 12.584 224.805 12.8574L224.312 12.2012C224.664 11.9238 225.068 11.707 225.525 11.5508C225.986 11.3906 226.471 11.3105 226.979 11.3105C227.811 11.3105 228.457 11.502 228.918 11.8848C229.379 12.2637 229.609 12.7852 229.609 13.4492ZM236.946 15.7051C236.946 17.1855 236.711 18.291 236.243 19.0215C235.778 19.752 235.065 20.1172 234.104 20.1172C233.182 20.1172 232.481 19.7441 232 18.998C231.52 18.248 231.28 17.1504 231.28 15.7051C231.28 14.2129 231.512 13.1055 231.977 12.3828C232.442 11.6602 233.151 11.2988 234.104 11.2988C235.034 11.2988 235.739 11.6758 236.219 12.4297C236.704 13.1836 236.946 14.2754 236.946 15.7051ZM232.264 15.7051C232.264 16.9512 232.411 17.8594 232.704 18.4297C232.996 18.9961 233.463 19.2793 234.104 19.2793C234.752 19.2793 235.221 18.9922 235.51 18.418C235.803 17.8398 235.95 16.9355 235.95 15.7051C235.95 14.4746 235.803 13.5742 235.51 13.0039C235.221 12.4297 234.752 12.1426 234.104 12.1426C233.463 12.1426 232.996 12.4258 232.704 12.9922C232.411 13.5547 232.264 14.459 232.264 15.7051Z" fill="white"/>
<path d="M267 15L285 15" stroke="white" stroke-linecap="round"/>
<path d="M279 21L285 15L279 9" stroke="white" stroke-linecap="round"/>
</svg>
