<svg width="344" height="32" viewBox="0 0 344 32" fill="none" xmlns="http://www.w3.org/2000/svg">
<path d="M28 16.0001L4 16.0001" stroke="white" stroke-linecap="round"/>
<path d="M12 8L4 16L12 24" stroke="white" stroke-linecap="round"/>
<path d="M67.4277 23H65.3623V14.7031C65.3623 13.7129 65.3857 12.9277 65.4326 12.3477C65.2979 12.4883 65.1309 12.6436 64.9316 12.8135C64.7383 12.9834 64.082 13.5225 62.9629 14.4307L61.9258 13.1211L65.7051 10.1504H67.4277V23Z" fill="white"/>
<rect x="60.5723" y="27" width="11" height="2" fill="#009FAC"/>
<path d="M109.468 23H101.021V21.7432L104.405 18.3418C105.437 17.2988 106.116 16.5547 106.444 16.1094C106.772 15.6641 107.019 15.2305 107.183 14.8086C107.347 14.3867 107.429 13.9326 107.429 13.4463C107.429 12.7607 107.221 12.2188 106.805 11.8203C106.389 11.416 105.812 11.2139 105.073 11.2139C104.54 11.2139 104.033 11.3018 103.553 11.4775C103.078 11.6533 102.548 11.9727 101.962 12.4355L101.188 11.4424C102.372 10.458 103.661 9.96582 105.056 9.96582C106.263 9.96582 107.209 10.2764 107.895 10.8975C108.58 11.5127 108.923 12.3418 108.923 13.3848C108.923 14.1992 108.694 15.0049 108.237 15.8018C107.78 16.5986 106.925 17.6064 105.671 18.8252L102.858 21.5762V21.6465H109.468V23Z" fill="white"/>
<path d="M148.557 13.1738C148.557 13.9941 148.325 14.665 147.862 15.1865C147.405 15.708 146.755 16.0566 145.911 16.2324V16.3027C146.942 16.4316 147.707 16.7598 148.205 17.2871C148.703 17.8145 148.952 18.5059 148.952 19.3613C148.952 20.5859 148.527 21.5293 147.678 22.1914C146.828 22.8477 145.621 23.1758 144.057 23.1758C143.377 23.1758 142.753 23.123 142.185 23.0176C141.622 22.918 141.074 22.7393 140.541 22.4814V21.0928C141.098 21.3682 141.689 21.5791 142.316 21.7256C142.949 21.8662 143.547 21.9365 144.109 21.9365C146.33 21.9365 147.44 21.0664 147.44 19.3262C147.44 17.7676 146.216 16.9883 143.767 16.9883H142.501V15.7314H143.784C144.786 15.7314 145.58 15.5117 146.166 15.0723C146.752 14.627 147.045 14.0117 147.045 13.2266C147.045 12.5996 146.828 12.1074 146.395 11.75C145.967 11.3926 145.384 11.2139 144.646 11.2139C144.083 11.2139 143.553 11.29 143.055 11.4424C142.557 11.5947 141.988 11.876 141.35 12.2861L140.611 11.3018C141.139 10.8857 141.745 10.5605 142.431 10.3262C143.122 10.0859 143.849 9.96582 144.61 9.96582C145.858 9.96582 146.828 10.2529 147.52 10.8271C148.211 11.3955 148.557 12.1777 148.557 13.1738Z" fill="white"/>
<path d="M189.217 20.0469H187.31V23H185.912V20.0469H179.663V18.7725L185.763 10.0801H187.31V18.7197H189.217V20.0469ZM185.912 18.7197V14.4482C185.912 13.6104 185.941 12.6641 186 11.6094H185.93C185.648 12.1719 185.385 12.6377 185.139 13.0068L181.122 18.7197H185.912Z" fill="white"/>
<path d="M220.193 22.0684C220.193 21.6758 220.281 21.3799 220.457 21.1807C220.639 20.9756 220.896 20.873 221.23 20.873C221.57 20.873 221.834 20.9756 222.021 21.1807C222.215 21.3799 222.312 21.6758 222.312 22.0684C222.312 22.4492 222.215 22.7422 222.021 22.9473C221.828 23.1523 221.564 23.2549 221.23 23.2549C220.932 23.2549 220.683 23.1641 220.483 22.9824C220.29 22.7949 220.193 22.4902 220.193 22.0684ZM225.092 22.0684C225.092 21.6758 225.18 21.3799 225.356 21.1807C225.537 20.9756 225.795 20.873 226.129 20.873C226.469 20.873 226.733 20.9756 226.92 21.1807C227.114 21.3799 227.21 21.6758 227.21 22.0684C227.21 22.4492 227.114 22.7422 226.92 22.9473C226.727 23.1523 226.463 23.2549 226.129 23.2549C225.83 23.2549 225.581 23.1641 225.382 22.9824C225.189 22.7949 225.092 22.4902 225.092 22.0684ZM229.991 22.0684C229.991 21.6758 230.079 21.3799 230.255 21.1807C230.436 20.9756 230.694 20.873 231.028 20.873C231.368 20.873 231.632 20.9756 231.819 21.1807C232.012 21.3799 232.109 21.6758 232.109 22.0684C232.109 22.4492 232.012 22.7422 231.819 22.9473C231.626 23.1523 231.362 23.2549 231.028 23.2549C230.729 23.2549 230.48 23.1641 230.281 22.9824C230.088 22.7949 229.991 22.4902 229.991 22.0684Z" fill="white"/>
<path d="M271.27 13.1738C271.27 13.9941 271.038 14.665 270.575 15.1865C270.118 15.708 269.468 16.0566 268.624 16.2324V16.3027C269.655 16.4316 270.42 16.7598 270.918 17.2871C271.416 17.8145 271.665 18.5059 271.665 19.3613C271.665 20.5859 271.24 21.5293 270.391 22.1914C269.541 22.8477 268.334 23.1758 266.77 23.1758C266.09 23.1758 265.466 23.123 264.897 23.0176C264.335 22.918 263.787 22.7393 263.254 22.4814V21.0928C263.811 21.3682 264.402 21.5791 265.029 21.7256C265.662 21.8662 266.26 21.9365 266.822 21.9365C269.043 21.9365 270.153 21.0664 270.153 19.3262C270.153 17.7676 268.929 16.9883 266.479 16.9883H265.214V15.7314H266.497C267.499 15.7314 268.293 15.5117 268.879 15.0723C269.465 14.627 269.758 14.0117 269.758 13.2266C269.758 12.5996 269.541 12.1074 269.107 11.75C268.68 11.3926 268.097 11.2139 267.358 11.2139C266.796 11.2139 266.266 11.29 265.768 11.4424C265.27 11.5947 264.701 11.876 264.062 12.2861L263.324 11.3018C263.852 10.8857 264.458 10.5605 265.144 10.3262C265.835 10.0859 266.562 9.96582 267.323 9.96582C268.571 9.96582 269.541 10.2529 270.232 10.8271C270.924 11.3955 271.27 12.1777 271.27 13.1738ZM282.224 16.5576C282.224 18.7783 281.872 20.4365 281.169 21.5322C280.472 22.6279 279.403 23.1758 277.961 23.1758C276.579 23.1758 275.527 22.6162 274.806 21.4971C274.085 20.3721 273.725 18.7256 273.725 16.5576C273.725 14.3193 274.074 12.6582 274.771 11.5742C275.468 10.4902 276.532 9.94824 277.961 9.94824C279.356 9.94824 280.413 10.5137 281.134 11.6445C281.861 12.7754 282.224 14.4131 282.224 16.5576ZM275.202 16.5576C275.202 18.4268 275.421 19.7891 275.861 20.6445C276.3 21.4941 277 21.9189 277.961 21.9189C278.934 21.9189 279.637 21.4883 280.071 20.627C280.51 19.7598 280.73 18.4033 280.73 16.5576C280.73 14.7119 280.51 13.3613 280.071 12.5059C279.637 11.6445 278.934 11.2139 277.961 11.2139C277 11.2139 276.3 11.6387 275.861 12.4883C275.421 13.332 275.202 14.6885 275.202 16.5576Z" fill="white"/>
<path d="M316 15.9999L340 15.9999" stroke="white" stroke-linecap="round"/>
<path d="M332 24L340 16L332 8" stroke="white" stroke-linecap="round"/>
</svg>
