<svg width="442" height="30" viewBox="0 0 442 30" fill="none" xmlns="http://www.w3.org/2000/svg">
<path d="M21 15L3 15" stroke="white" stroke-linecap="round"/>
<path d="M9 9L3 15L9 21" stroke="white" stroke-linecap="round"/>
<path d="M76.0469 20H74.4404V13.5469C74.4404 12.7767 74.4587 12.166 74.4951 11.7148C74.3903 11.8242 74.2604 11.945 74.1055 12.0771C73.9551 12.2093 73.4447 12.6286 72.5742 13.335L71.7676 12.3164L74.707 10.0059H76.0469V20Z" fill="white"/>
<rect x="70.7148" y="26" width="11" height="2" fill="#009FAC"/>
<path d="M135.681 20.5H129.111V19.5225L131.743 16.877C132.545 16.0658 133.074 15.487 133.329 15.1406C133.584 14.7943 133.776 14.457 133.903 14.1289C134.031 13.8008 134.095 13.4476 134.095 13.0693C134.095 12.5361 133.933 12.1146 133.609 11.8047C133.286 11.4902 132.837 11.333 132.263 11.333C131.848 11.333 131.454 11.4014 131.08 11.5381C130.711 11.6748 130.299 11.9232 129.843 12.2832L129.241 11.5107C130.162 10.7451 131.164 10.3623 132.249 10.3623C133.188 10.3623 133.924 10.6038 134.457 11.0869C134.99 11.5654 135.257 12.2103 135.257 13.0215C135.257 13.6549 135.079 14.2816 134.724 14.9014C134.368 15.5212 133.703 16.305 132.728 17.2529L130.54 19.3926V19.4473H135.681V20.5Z" fill="white"/>
<path d="M191.02 12.8574C191.02 13.4954 190.84 14.0173 190.479 14.4229C190.124 14.8285 189.618 15.0996 188.962 15.2363V15.291C189.764 15.3913 190.359 15.6465 190.746 16.0566C191.133 16.4668 191.327 17.0046 191.327 17.6699C191.327 18.6224 190.997 19.3561 190.336 19.8711C189.675 20.3815 188.736 20.6367 187.52 20.6367C186.991 20.6367 186.506 20.5957 186.063 20.5137C185.626 20.4362 185.2 20.2972 184.785 20.0967V19.0166C185.218 19.2308 185.678 19.3949 186.166 19.5088C186.658 19.6182 187.123 19.6729 187.561 19.6729C189.288 19.6729 190.151 18.9961 190.151 17.6426C190.151 16.4303 189.199 15.8242 187.294 15.8242H186.31V14.8467H187.308C188.087 14.8467 188.704 14.6758 189.16 14.334C189.616 13.9876 189.844 13.5091 189.844 12.8984C189.844 12.4108 189.675 12.028 189.338 11.75C189.005 11.472 188.552 11.333 187.978 11.333C187.54 11.333 187.128 11.3923 186.74 11.5107C186.353 11.6292 185.911 11.848 185.414 12.167L184.84 11.4014C185.25 11.0778 185.722 10.8249 186.255 10.6426C186.793 10.4557 187.358 10.3623 187.95 10.3623C188.921 10.3623 189.675 10.5856 190.213 11.0322C190.751 11.4743 191.02 12.0827 191.02 12.8574Z" fill="white"/>
<path d="M247.582 18.2031H246.099V20.5H245.012V18.2031H240.151V17.2119L244.896 10.4512H246.099V17.1709H247.582V18.2031ZM245.012 17.1709V13.8486C245.012 13.1969 245.035 12.4609 245.08 11.6406H245.025C244.807 12.0781 244.602 12.4404 244.41 12.7275L241.286 17.1709H245.012Z" fill="white"/>
<path d="M296.611 19.7754C296.611 19.4701 296.68 19.2399 296.816 19.085C296.958 18.9255 297.158 18.8457 297.418 18.8457C297.682 18.8457 297.887 18.9255 298.033 19.085C298.184 19.2399 298.259 19.4701 298.259 19.7754C298.259 20.0716 298.184 20.2995 298.033 20.459C297.883 20.6185 297.678 20.6982 297.418 20.6982C297.186 20.6982 296.992 20.6276 296.837 20.4863C296.687 20.3405 296.611 20.1035 296.611 19.7754ZM300.344 19.7754C300.344 19.4701 300.412 19.2399 300.549 19.085C300.69 18.9255 300.891 18.8457 301.15 18.8457C301.415 18.8457 301.62 18.9255 301.766 19.085C301.916 19.2399 301.991 19.4701 301.991 19.7754C301.991 20.0716 301.916 20.2995 301.766 20.459C301.615 20.6185 301.41 20.6982 301.15 20.6982C300.918 20.6982 300.724 20.6276 300.569 20.4863C300.419 20.3405 300.344 20.1035 300.344 19.7754ZM304.076 19.7754C304.076 19.4701 304.145 19.2399 304.281 19.085C304.423 18.9255 304.623 18.8457 304.883 18.8457C305.147 18.8457 305.352 18.9255 305.498 19.085C305.648 19.2399 305.724 19.4701 305.724 19.7754C305.724 20.0716 305.648 20.2995 305.498 20.459C305.348 20.6185 305.143 20.6982 304.883 20.6982C304.65 20.6982 304.457 20.6276 304.302 20.4863C304.151 20.3405 304.076 20.1035 304.076 19.7754Z" fill="white"/>
<path d="M361.162 12.8574C361.162 13.4954 360.982 14.0173 360.622 14.4229C360.267 14.8285 359.761 15.0996 359.104 15.2363V15.291C359.907 15.3913 360.501 15.6465 360.889 16.0566C361.276 16.4668 361.47 17.0046 361.47 17.6699C361.47 18.6224 361.139 19.3561 360.479 19.8711C359.818 20.3815 358.879 20.6367 357.662 20.6367C357.133 20.6367 356.648 20.5957 356.206 20.5137C355.769 20.4362 355.342 20.2972 354.928 20.0967V19.0166C355.361 19.2308 355.821 19.3949 356.309 19.5088C356.801 19.6182 357.266 19.6729 357.703 19.6729C359.43 19.6729 360.294 18.9961 360.294 17.6426C360.294 16.4303 359.341 15.8242 357.437 15.8242H356.452V14.8467H357.45C358.229 14.8467 358.847 14.6758 359.303 14.334C359.758 13.9876 359.986 13.5091 359.986 12.8984C359.986 12.4108 359.818 12.028 359.48 11.75C359.148 11.472 358.694 11.333 358.12 11.333C357.683 11.333 357.27 11.3923 356.883 11.5107C356.495 11.6292 356.053 11.848 355.557 12.167L354.982 11.4014C355.393 11.0778 355.864 10.8249 356.397 10.6426C356.935 10.4557 357.5 10.3623 358.093 10.3623C359.063 10.3623 359.818 10.5856 360.355 11.0322C360.893 11.4743 361.162 12.0827 361.162 12.8574ZM369.604 15.4893C369.604 17.2165 369.331 18.5062 368.784 19.3584C368.242 20.2106 367.41 20.6367 366.289 20.6367C365.214 20.6367 364.396 20.2015 363.835 19.3311C363.274 18.4561 362.994 17.1755 362.994 15.4893C362.994 13.7484 363.265 12.4564 363.808 11.6133C364.35 10.7702 365.177 10.3486 366.289 10.3486C367.374 10.3486 368.196 10.7884 368.757 11.668C369.322 12.5475 369.604 13.8213 369.604 15.4893ZM364.143 15.4893C364.143 16.943 364.313 18.0026 364.655 18.668C364.997 19.3288 365.542 19.6592 366.289 19.6592C367.046 19.6592 367.592 19.3242 367.93 18.6543C368.271 17.9798 368.442 16.9248 368.442 15.4893C368.442 14.0537 368.271 13.0033 367.93 12.3379C367.592 11.668 367.046 11.333 366.289 11.333C365.542 11.333 364.997 11.6634 364.655 12.3242C364.313 12.9805 364.143 14.0355 364.143 15.4893Z" fill="white"/>
<path d="M421 15L439 15" stroke="white" stroke-linecap="round"/>
<path d="M433 21L439 15L433 9" stroke="white" stroke-linecap="round"/>
</svg>
